<?xml version="1.0" standalone="no"?>
<svg xmlns:xlink="http://www.w3.org/1999/xlink" id="wave" style="transform:rotate(0deg); transition: 0.3s" viewBox="0 0 1440 290" version="1.1" xmlns="http://www.w3.org/2000/svg"><defs><linearGradient id="sw-gradient-0" x1="0" x2="0" y1="1" y2="0"><stop stop-color="rgba(61, 168, 255, 1)" offset="0%"/><stop stop-color="rgba(255, 255, 255, 0.2)" offset="100%"/></linearGradient></defs><path style="transform:translate(0, 0px); opacity:1" fill="url(#sw-gradient-0)" d="M0,232L48,217.5C96,203,192,174,288,164.3C384,155,480,164,576,178.8C672,193,768,213,864,227.2C960,242,1056,251,1152,241.7C1248,232,1344,203,1440,193.3C1536,184,1632,193,1728,183.7C1824,174,1920,145,2016,140.2C2112,135,2208,155,2304,145C2400,135,2496,97,2592,96.7C2688,97,2784,135,2880,164.3C2976,193,3072,213,3168,227.2C3264,242,3360,251,3456,241.7C3552,232,3648,203,3744,174C3840,145,3936,116,4032,111.2C4128,106,4224,126,4320,135.3C4416,145,4512,145,4608,130.5C4704,116,4800,87,4896,87C4992,87,5088,116,5184,106.3C5280,97,5376,48,5472,24.2C5568,0,5664,0,5760,0C5856,0,5952,0,6048,29C6144,58,6240,116,6336,140.2C6432,164,6528,155,6624,135.3C6720,116,6816,87,6864,72.5L6912,58L6912,290L6864,290C6816,290,6720,290,6624,290C6528,290,6432,290,6336,290C6240,290,6144,290,6048,290C5952,290,5856,290,5760,290C5664,290,5568,290,5472,290C5376,290,5280,290,5184,290C5088,290,4992,290,4896,290C4800,290,4704,290,4608,290C4512,290,4416,290,4320,290C4224,290,4128,290,4032,290C3936,290,3840,290,3744,290C3648,290,3552,290,3456,290C3360,290,3264,290,3168,290C3072,290,2976,290,2880,290C2784,290,2688,290,2592,290C2496,290,2400,290,2304,290C2208,290,2112,290,2016,290C1920,290,1824,290,1728,290C1632,290,1536,290,1440,290C1344,290,1248,290,1152,290C1056,290,960,290,864,290C768,290,672,290,576,290C480,290,384,290,288,290C192,290,96,290,48,290L0,290Z"/></svg>