<?xml version="1.0" standalone="no"?>
<svg xmlns:xlink="http://www.w3.org/1999/xlink" id="wave" style="transform:rotate(0deg); transition: 0.3s" viewBox="0 0 1440 360" version="1.1" xmlns="http://www.w3.org/2000/svg"><defs><linearGradient id="sw-gradient-0" x1="0" x2="0" y1="1" y2="0"><stop stop-color="rgba(255, 255, 255, 1)" offset="0%"/><stop stop-color="rgba(245, 247, 249, 1)" offset="100%"/></linearGradient></defs><path style="transform:translate(0, 0px); opacity:1" fill="url(#sw-gradient-0)" d="M0,108L60,120C120,132,240,156,360,186C480,216,600,252,720,270C840,288,960,288,1080,264C1200,240,1320,192,1440,174C1560,156,1680,168,1800,192C1920,216,2040,252,2160,246C2280,240,2400,192,2520,180C2640,168,2760,192,2880,192C3000,192,3120,168,3240,162C3360,156,3480,168,3600,162C3720,156,3840,132,3960,108C4080,84,4200,60,4320,90C4440,120,4560,204,4680,204C4800,204,4920,120,5040,96C5160,72,5280,108,5400,108C5520,108,5640,72,5760,60C5880,48,6000,60,6120,66C6240,72,6360,72,6480,102C6600,132,6720,192,6840,210C6960,228,7080,204,7200,180C7320,156,7440,132,7560,102C7680,72,7800,36,7920,18C8040,0,8160,0,8280,12C8400,24,8520,48,8580,60L8640,72L8640,360L8580,360C8520,360,8400,360,8280,360C8160,360,8040,360,7920,360C7800,360,7680,360,7560,360C7440,360,7320,360,7200,360C7080,360,6960,360,6840,360C6720,360,6600,360,6480,360C6360,360,6240,360,6120,360C6000,360,5880,360,5760,360C5640,360,5520,360,5400,360C5280,360,5160,360,5040,360C4920,360,4800,360,4680,360C4560,360,4440,360,4320,360C4200,360,4080,360,3960,360C3840,360,3720,360,3600,360C3480,360,3360,360,3240,360C3120,360,3000,360,2880,360C2760,360,2640,360,2520,360C2400,360,2280,360,2160,360C2040,360,1920,360,1800,360C1680,360,1560,360,1440,360C1320,360,1200,360,1080,360C960,360,840,360,720,360C600,360,480,360,360,360C240,360,120,360,60,360L0,360Z"/></svg>